# xmcd
#
# Track frame offsets:
#       200
#       16255
#       52382
#       65782
#
# Disc length: 1202 seconds
#
# Revision: 0
# Processed by: cddbd v1.5.1PL0 Copyright (c) Steve Scherf et al.
# Submitted via: CD-DA_X-Tractor v0.24
#
DISCID=3804b004
DTITLE=Temper Temper - It´s all outta lovin´ you [CD Single)
DYEAR=1991
DGENRE=hardcore
TTITLE0=It´s all outta lovin´ you
TTITLE1=It´s all outta lovin´ you (12" version)
TTITLE2=Bitter love
TTITLE3=It´s all outta lovin´ you (Jon Silva´s roots mix)
EXTD=
EXTT0=
EXTT1=
EXTT2=
EXTT3=
PLAYORDER=
